bicep_curl
version=1
nRows=440
nColumns=3
inDegrees=yes

# SIMM Motion File Header:
name bicep_curl
datacolumns 3
datarows 440
otherdata 1
range 0.0000 0.4390
endheader
time	/jointset/r_shoulder/r_shoulder_elev/value	/jointset/r_elbow/r_elbow_flex/value
0.0000	0.0000	84.1400
0.0010	0.0000	84.3002
0.0020	0.0000	84.4598
0.0030	0.0000	84.6187
0.0040	0.0000	84.7771
0.0050	0.0000	84.9348
0.0060	0.0000	85.0918
0.0070	0.0000	85.2483
0.0080	0.0000	85.4041
0.0090	0.0000	85.5592
0.0100	0.0000	85.7138
0.0110	0.0000	85.8677
0.0120	0.0000	86.0210
0.0130	0.0000	86.1736
0.0140	0.0000	86.3256
0.0150	0.0000	86.4770
0.0160	0.0000	86.6278
0.0170	0.0000	86.7779
0.0180	0.0000	86.9274
0.0190	0.0000	87.0763
0.0200	0.0000	87.2245
0.0210	0.0000	87.3721
0.0220	0.0000	87.5191
0.0230	0.0000	87.6655
0.0240	0.0000	87.8112
0.0250	0.0000	87.9563
0.0260	0.0000	88.1007
0.0270	0.0000	88.2446
0.0280	0.0000	88.3878
0.0290	0.0000	88.5303
0.0300	0.0000	88.6723
0.0310	0.0000	88.8136
0.0320	0.0000	88.9543
0.0330	0.0000	89.0943
0.0340	0.0000	89.2337
0.0350	0.0000	89.3725
0.0360	0.0000	89.5107
0.0370	0.0000	89.6482
0.0380	0.0000	89.7851
0.0390	0.0000	89.9214
0.0400	0.0000	90.0570
0.0410	0.0000	90.1920
0.0420	0.0000	90.3264
0.0430	0.0000	90.4601
0.0440	0.0000	90.5933
0.0450	0.0000	90.7257
0.0460	0.0000	90.8576
0.0470	0.0000	90.9888
0.0480	0.0000	91.1194
0.0490	0.0000	91.2494
0.0500	0.0000	91.3787
0.0510	0.0000	91.5074
0.0520	0.0000	91.6355
0.0530	0.0000	91.7630
0.0540	0.0000	91.8898
0.0550	0.0000	92.0160
0.0560	0.0000	92.1415
0.0570	0.0000	92.2664
0.0580	0.0000	92.3907
0.0590	0.0000	92.5144
0.0600	0.0000	92.6374
0.0610	0.0000	92.7598
0.0620	0.0000	92.8816
0.0630	0.0000	93.0028
0.0640	0.0000	93.1233
0.0650	0.0000	93.2431
0.0660	0.0000	93.3624
0.0670	0.0000	93.4810
0.0680	0.0000	93.5990
0.0690	0.0000	93.7164
0.0700	0.0000	93.8331
0.0710	0.0000	93.9492
0.0720	0.0000	94.0647
0.0730	0.0000	94.1795
0.0740	0.0000	94.2937
0.0750	0.0000	94.4073
0.0760	0.0000	94.5203
0.0770	0.0000	94.6326
0.0780	0.0000	94.7443
0.0790	0.0000	94.8554
0.0800	0.0000	94.9658
0.0810	0.0000	95.0756
0.0820	0.0000	95.1848
0.0830	0.0000	95.2933
0.0840	0.0000	95.4012
0.0850	0.0000	95.5085
0.0860	0.0000	95.6151
0.0870	0.0000	95.7212
0.0880	0.0000	95.8266
0.0890	0.0000	95.9313
0.0900	0.0000	96.0354
0.0910	0.0000	96.1389
0.0920	0.0000	96.2418
0.0930	0.0000	96.3441
0.0940	0.0000	96.4457
0.0950	0.0000	96.5466
0.0960	0.0000	96.6470
0.0970	0.0000	96.7467
0.0980	0.0000	96.8458
0.0990	0.0000	96.9443
0.1000	0.0000	97.0421
0.1010	0.0000	97.1393
0.1020	0.0000	97.2359
0.1030	0.0000	97.3318
0.1040	0.0000	97.4271
0.1050	0.0000	97.5218
0.1060	0.0000	97.6158
0.1070	0.0000	97.7092
0.1080	0.0000	97.8020
0.1090	0.0000	97.8942
0.1100	0.0000	97.9857
0.1110	0.0000	98.0766
0.1120	0.0000	98.1669
0.1130	0.0000	98.2565
0.1140	0.0000	98.3455
0.1150	0.0000	98.4339
0.1160	0.0000	98.5216
0.1170	0.0000	98.6088
0.1180	0.0000	98.6953
0.1190	0.0000	98.7811
0.1200	0.0000	98.8663
0.1210	0.0000	98.9509
0.1220	0.0000	99.0349
0.1230	0.0000	99.1182
0.1240	0.0000	99.2009
0.1250	0.0000	99.2830
0.1260	0.0000	99.3645
0.1270	0.0000	99.4453
0.1280	0.0000	99.5255
0.1290	0.0000	99.6050
0.1300	0.0000	99.6839
0.1310	0.0000	99.7622
0.1320	0.0000	99.8399
0.1330	0.0000	99.9169
0.1340	0.0000	99.9933
0.1350	0.0000	100.0691
0.1360	0.0000	100.1442
0.1370	0.0000	100.2188
0.1380	0.0000	100.2926
0.1390	0.0000	100.3659
0.1400	0.0000	100.4385
0.1410	0.0000	100.5105
0.1420	0.0000	100.5819
0.1430	0.0000	100.6526
0.1440	0.0000	100.7227
0.1450	0.0000	100.7922
0.1460	0.0000	100.8610
0.1470	0.0000	100.9292
0.1480	0.0000	100.9968
0.1490	0.0000	101.0638
0.1500	0.0000	101.1301
0.1510	0.0000	101.1958
0.1520	0.0000	101.2608
0.1530	0.0000	101.3253
0.1540	0.0000	101.3891
0.1550	0.0000	101.4522
0.1560	0.0000	101.5148
0.1570	0.0000	101.5767
0.1580	0.0000	101.6380
0.1590	0.0000	101.6986
0.1600	0.0000	101.7586
0.1610	0.0000	101.8180
0.1620	0.0000	101.8768
0.1630	0.0000	101.9349
0.1640	0.0000	101.9924
0.1650	0.0000	102.0493
0.1660	0.0000	102.1055
0.1670	0.0000	102.1611
0.1680	0.0000	102.2161
0.1690	0.0000	102.2705
0.1700	0.0000	102.3242
0.1710	0.0000	102.3773
0.1720	0.0000	102.4297
0.1730	0.0000	102.4816
0.1740	0.0000	102.5328
0.1750	0.0000	102.5833
0.1760	0.0000	102.6333
0.1770	0.0000	102.6826
0.1780	0.0000	102.7313
0.1790	0.0000	102.7793
0.1800	0.0000	102.8267
0.1810	0.0000	102.8735
0.1820	0.0000	102.9197
0.1830	0.0000	102.9652
0.1840	0.0000	103.0101
0.1850	0.0000	103.0543
0.1860	0.0000	103.0980
0.1870	0.0000	103.1410
0.1880	0.0000	103.1834
0.1890	0.0000	103.2251
0.1900	0.0000	103.2662
0.1910	0.0000	103.3067
0.1920	0.0000	103.3466
0.1930	0.0000	103.3858
0.1940	0.0000	103.4244
0.1950	0.0000	103.4624
0.1960	0.0000	103.4997
0.1970	0.0000	103.5364
0.1980	0.0000	103.5725
0.1990	0.0000	103.6079
0.2000	0.0000	103.6427
0.2010	0.0000	103.6769
0.2020	0.0000	103.7105
0.2030	0.0000	103.7434
0.2040	0.0000	103.7757
0.2050	0.0000	103.8073
0.2060	0.0000	103.8384
0.2070	0.0000	103.8688
0.2080	0.0000	103.8986
0.2090	0.0000	103.9277
0.2100	0.0000	103.9562
0.2110	0.0000	103.9841
0.2120	0.0000	104.0113
0.2130	0.0000	104.0380
0.2140	0.0000	104.0640
0.2150	0.0000	104.0893
0.2160	0.0000	104.1141
0.2170	0.0000	104.1382
0.2180	0.0000	104.1616
0.2190	0.0000	104.1845
0.2200	0.0000	104.2067
0.2210	0.0000	104.2283
0.2220	0.0000	104.2492
0.2230	0.0000	104.2695
0.2240	0.0000	104.2892
0.2250	0.0000	104.3083
0.2260	0.0000	104.3267
0.2270	0.0000	104.3445
0.2280	0.0000	104.3617
0.2290	0.0000	104.3782
0.2300	0.0000	104.3941
0.2310	0.0000	104.4094
0.2320	0.0000	104.4241
0.2330	0.0000	104.4381
0.2340	0.0000	104.4515
0.2350	0.0000	104.4642
0.2360	0.0000	104.4764
0.2370	0.0000	104.4879
0.2380	0.0000	104.4987
0.2390	0.0000	104.5090
0.2400	0.0000	104.5186
0.2410	0.0000	104.5276
0.2420	0.0000	104.5359
0.2430	0.0000	104.5436
0.2440	0.0000	104.5507
0.2450	0.0000	104.5572
0.2460	0.0000	104.5630
0.2470	0.0000	104.5682
0.2480	0.0000	104.5728
0.2490	0.0000	104.5767
0.2500	0.0000	104.5800
0.2510	0.0000	104.5800
0.2520	0.0000	104.5800
0.2530	0.0000	104.5800
0.2540	0.0000	104.5800
0.2550	0.0000	104.5800
0.2560	0.0000	104.5800
0.2570	0.0000	104.5800
0.2580	0.0000	104.5800
0.2590	0.0000	104.5800
0.2600	0.0000	104.5800
0.2610	0.0000	104.5800
0.2620	0.0000	104.5800
0.2630	0.0000	104.5800
0.2640	0.0000	104.5800
0.2650	0.0000	104.5800
0.2660	0.0000	104.5800
0.2670	0.0000	104.5800
0.2680	0.0000	104.5800
0.2690	0.0000	104.5800
0.2700	0.0000	104.5800
0.2710	0.0000	104.5800
0.2720	0.0000	104.5800
0.2730	0.0000	104.5800
0.2740	0.0000	104.5800
0.2750	0.0000	104.5800
0.2760	0.0000	104.5800
0.2770	0.0000	104.5800
0.2780	0.0000	104.5800
0.2790	0.0000	104.5800
0.2800	0.0000	104.5800
0.2810	0.0000	104.5800
0.2820	0.0000	104.5800
0.2830	0.0000	104.5800
0.2840	0.0000	104.5800
0.2850	0.0000	104.5800
0.2860	0.0000	104.5800
0.2870	0.0000	104.5800
0.2880	0.0000	104.5800
0.2890	0.0000	104.5800
0.2900	0.0000	104.5800
0.2910	0.0000	104.5800
0.2920	0.0000	104.5800
0.2930	0.0000	104.5800
0.2940	0.0000	104.5800
0.2950	0.0000	104.5800
0.2960	0.0000	104.5800
0.2970	0.0000	104.5800
0.2980	0.0000	104.5800
0.2990	0.0000	104.5800
0.3000	0.0000	104.5800
0.3010	0.0000	104.5800
0.3020	0.0000	104.5800
0.3030	0.0000	104.5800
0.3040	0.0000	104.5800
0.3050	0.0000	104.5800
0.3060	0.0000	104.5800
0.3070	0.0000	104.5800
0.3080	0.0000	104.5800
0.3090	0.0000	104.5800
0.3100	0.0000	104.5800
0.3110	0.0000	104.5800
0.3120	0.0000	104.5800
0.3130	0.0000	104.5800
0.3140	0.0000	104.5800
0.3150	0.0000	104.5800
0.3160	0.0000	104.5800
0.3170	0.0000	104.5800
0.3180	0.0000	104.5800
0.3190	0.0000	104.5800
0.3200	0.0000	104.5800
0.3210	0.0000	104.5800
0.3220	0.0000	104.5800
0.3230	0.0000	104.5800
0.3240	0.0000	104.5800
0.3250	0.0000	104.5800
0.3260	0.0000	104.5800
0.3270	0.0000	104.5800
0.3280	0.0000	104.5800
0.3290	0.0000	104.5800
0.3300	0.0000	104.5800
0.3310	0.0000	104.5800
0.3320	0.0000	104.5800
0.3330	0.0000	104.5800
0.3340	0.0000	104.5800
0.3350	0.0000	104.5800
0.3360	0.0000	104.5800
0.3370	0.0000	104.5800
0.3380	0.0000	104.5800
0.3390	0.0000	104.5800
0.3400	0.0000	104.5800
0.3410	0.0000	104.5800
0.3420	0.0000	104.5800
0.3430	0.0000	104.5800
0.3440	0.0000	104.5800
0.3450	0.0000	104.5800
0.3460	0.0000	104.5800
0.3470	0.0000	104.5800
0.3480	0.0000	104.5800
0.3490	0.0000	104.5800
0.3500	0.0000	104.5800
0.3510	0.0000	104.5800
0.3520	0.0000	104.5800
0.3530	0.0000	104.5800
0.3540	0.0000	104.5800
0.3550	0.0000	104.5800
0.3560	0.0000	104.5800
0.3570	0.0000	104.5800
0.3580	0.0000	104.5800
0.3590	0.0000	104.5800
0.3600	0.0000	104.5800
0.3610	0.0000	104.5800
0.3620	0.0000	104.5800
0.3630	0.0000	104.5800
0.3640	0.0000	104.5800
0.3650	0.0000	104.5800
0.3660	0.0000	104.5800
0.3670	0.0000	104.5800
0.3680	0.0000	104.5800
0.3690	0.0000	104.5800
0.3700	0.0000	104.5800
0.3710	0.0000	104.5800
0.3720	0.0000	104.5800
0.3730	0.0000	104.5800
0.3740	0.0000	104.5800
0.3750	0.0000	104.5800
0.3760	0.0000	104.5800
0.3770	0.0000	104.5800
0.3780	0.0000	104.5800
0.3790	0.0000	104.5800
0.3800	0.0000	104.5800
0.3810	0.0000	104.5800
0.3820	0.0000	104.5800
0.3830	0.0000	104.5800
0.3840	0.0000	104.5800
0.3850	0.0000	104.5800
0.3860	0.0000	104.5800
0.3870	0.0000	104.5800
0.3880	0.0000	104.5800
0.3890	0.0000	104.5800
0.3900	0.0000	104.5800
0.3910	0.0000	104.5800
0.3920	0.0000	104.5800
0.3930	0.0000	104.5800
0.3940	0.0000	104.5800
0.3950	0.0000	104.5800
0.3960	0.0000	104.5800
0.3970	0.0000	104.5800
0.3980	0.0000	104.5800
0.3990	0.0000	104.5800
0.4000	0.0000	104.5800
0.4010	0.0000	104.5800
0.4020	0.0000	104.5800
0.4030	0.0000	104.5800
0.4040	0.0000	104.5800
0.4050	0.0000	104.5800
0.4060	0.0000	104.5800
0.4070	0.0000	104.5800
0.4080	0.0000	104.5800
0.4090	0.0000	104.5800
0.4100	0.0000	104.5800
0.4110	0.0000	104.5800
0.4120	0.0000	104.5800
0.4130	0.0000	104.5800
0.4140	0.0000	104.5800
0.4150	0.0000	104.5800
0.4160	0.0000	104.5800
0.4170	0.0000	104.5800
0.4180	0.0000	104.5800
0.4190	0.0000	104.5800
0.4200	0.0000	104.5800
0.4210	0.0000	104.5800
0.4220	0.0000	104.5800
0.4230	0.0000	104.5800
0.4240	0.0000	104.5800
0.4250	0.0000	104.5800
0.4260	0.0000	104.5800
0.4270	0.0000	104.5800
0.4280	0.0000	104.5800
0.4290	0.0000	104.5800
0.4300	0.0000	104.5800
0.4310	0.0000	104.5800
0.4320	0.0000	104.5800
0.4330	0.0000	104.5800
0.4340	0.0000	104.5800
0.4350	0.0000	104.5800
0.4360	0.0000	104.5800
0.4370	0.0000	104.5800
0.4380	0.0000	104.5800
0.4390	0.0000	104.5800
